<svg width="40" height="40" viewBox="0 0 40 40" fill="none" xmlns="http://www.w3.org/2000/svg">
  <circle cx="20" cy="20" r="20" fill="#00B900"/>
  <path d="M29 17.5C29 13.91 24.97 11 20 11C15.03 11 11 13.91 11 17.5C11 20.68 14.14 23.35 18.43 23.87C18.71 23.94 19.09 24.09 19.18 24.37C19.26 24.61 19.23 24.94 19.21 25.18C19.21 25.18 19.11 25.82 19.09 25.96C19.06 26.18 18.93 26.81 20 26.35C21.07 25.89 25.95 22.87 27.87 20.61C28.63 19.66 29 18.62 29 17.5Z" fill="white"/>
  <path d="M23.5 19.5H22C21.86 19.5 21.75 19.39 21.75 19.25V16.75C21.75 16.61 21.86 16.5 22 16.5H23.5C23.64 16.5 23.75 16.61 23.75 16.75V17.25C23.75 17.39 23.64 17.5 23.5 17.5H22.75V18H23.5C23.64 18 23.75 18.11 23.75 18.25V18.75C23.75 18.89 23.64 19 23.5 19H22.75V19.25C22.75 19.39 22.64 19.5 22.5 19.5H22C21.86 19.5 21.75 19.39 21.75 19.25M20.5 16.5C20.64 16.5 20.75 16.61 20.75 16.75V18.75C20.75 18.89 20.64 19 20.5 19H20C19.86 19 19.75 18.89 19.75 18.75V16.75C19.75 16.61 19.86 16.5 20 16.5H20.5ZM18.5 16.5C18.64 16.5 18.75 16.61 18.75 16.75V18.25C18.75 18.39 18.86 18.5 19 18.5H19.75C19.89 18.5 20 18.61 20 18.75V19.25C20 19.39 19.89 19.5 19.75 19.5H19C18.31 19.5 17.75 18.94 17.75 18.25V16.75C17.75 16.61 17.86 16.5 18 16.5H18.5ZM16.5 18.5H17.25V16.75C17.25 16.61 17.14 16.5 17 16.5H16.5C16.36 16.5 16.25 16.61 16.25 16.75V19.25C16.25 19.39 16.36 19.5 16.5 19.5H18C18.14 19.5 18.25 19.39 18.25 19.25V18.75C18.25 18.61 18.14 18.5 18 18.5H16.5V18.5Z" fill="#00B900"/>
</svg>
