<svg width="40" height="40" viewBox="0 0 40 40" fill="none" xmlns="http://www.w3.org/2000/svg">
  <circle cx="20" cy="20" r="20" fill="#0A66C2"/>
  <path d="M15.5 17H12.5V27.5H15.5V17ZM14 11.5C13.17 11.5 12.5 12.17 12.5 13C12.5 13.83 13.17 14.5 14 14.5C14.83 14.5 15.5 13.83 15.5 13C15.5 12.17 14.83 11.5 14 11.5ZM27.5 27.5H24.5V22.38C24.5 21.16 24.48 19.59 22.8 19.59C21.1 19.59 20.84 20.93 20.84 22.29V27.5H17.84V17H20.71V18.43H20.75C21.14 17.7 22.12 16.93 23.54 16.93C26.58 16.93 27.5 18.97 27.5 21.67V27.5Z" fill="white"/>
</svg>
